<?xml version="1.0" encoding="utf-8"?>
<!-- Generator: Adobe Illustrator 16.0.4, SVG Export Plug-In . SVG Version: 6.00 Build 0)  -->
<!DOCTYPE svg PUBLIC "-//W3C//DTD SVG 1.1//EN" "http://www.w3.org/Graphics/SVG/1.1/DTD/svg11.dtd">
<svg version="1.1" id="Calque_1" xmlns="http://www.w3.org/2000/svg" xmlns:xlink="http://www.w3.org/1999/xlink" x="0px" y="0px"
	 width="214.195px" height="360px" viewBox="0 0 214.195 360" enable-background="new 0 0 214.195 360" xml:space="preserve">
<path d="M105.798,0c-5.301,0-9.602,4.301-9.602,9.6v316.32l-79.81-79.812c-3.744-3.748-9.83-3.748-13.574,0
	c-3.749,3.748-3.749,9.826,0,13.574l97.498,97.498c1.872,1.881,4.33,2.817,6.787,2.817s4.916-0.938,6.786-2.813l97.498-97.496
	c3.749-3.75,3.749-9.824,0-13.572c-3.743-3.75-9.83-3.75-13.573,0l-82.411,82.406V9.601C115.397,4.302,111.096,0,105.798,0z"/>
</svg>
