<?xml version="1.0" encoding="utf-8"?>
<!-- Generator: Adobe Illustrator 16.0.4, SVG Export Plug-In . SVG Version: 6.00 Build 0)  -->
<!DOCTYPE svg PUBLIC "-//W3C//DTD SVG 1.1//EN" "http://www.w3.org/Graphics/SVG/1.1/DTD/svg11.dtd">
<svg version="1.1" id="Calque_1" xmlns="http://www.w3.org/2000/svg" xmlns:xlink="http://www.w3.org/1999/xlink" x="0px" y="0px"
	 width="428.699px" height="428.645px" viewBox="0 0 428.699 428.645" enable-background="new 0 0 428.699 428.645"
	 xml:space="preserve">
<g>
	<path d="M413.546,277.105c0,0-26.428-26.43-62.477-62.486c36.049-36.043,62.477-62.478,62.477-62.478
		c20.146-20.146,20.146-52.935,0-73.07l-63.654-63.658c-20.154-20.146-52.938-20.146-73.092,0l-62.472,62.472
		c-36.047-36.043-62.477-62.472-62.477-62.472c-20.146-20.146-52.929-20.146-73.08,0L15.109,79.076
		c-20.126,20.136-20.126,52.925,0,73.071c0,0,26.438,26.429,62.477,62.477l-62.477,62.472c-20.146,20.155-20.146,52.93,0,73.09
		l63.667,63.662c20.146,20.137,52.93,20.137,73.08,0c0,0,26.43-26.447,62.477-62.486c36.049,36.056,62.479,62.486,62.479,62.486
		c20.146,20.137,52.93,20.137,73.08,0c0.01,0,63.668-63.662,63.668-63.662c9.748-9.769,15.139-22.73,15.139-36.543
		C428.687,299.843,423.296,286.867,413.546,277.105z M293.324,31.922c5.342-5.362,12.461-8.304,20.023-8.304
		c7.572,0,14.691,2.947,20.045,8.304l63.656,63.653c11.045,11.049,11.045,29.021,0,40.075c0,0-26.438,26.434-62.477,62.477
		c-4.83-4.824-9.939-9.941-14.953-14.952c4.182,0.154,8.4-1.31,11.588-4.498c6.086-6.082,6.086-15.936,0.021-22.003
		c-6.088-6.082-15.939-6.082-22.016,0c-3.188,3.187-4.658,7.416-4.502,11.602c-14.062-14.069-28.379-28.387-42.471-42.461
		c4.182,0.154,8.409-1.311,11.604-4.507c6.075-6.072,6.075-15.926,0-21.994c-6.076-6.082-15.916-6.082-21.992,0
		c-3.188,3.192-4.662,7.431-4.504,11.616c-5.56-5.563-11.192-11.194-16.535-16.536C266.875,58.345,293.324,31.922,293.324,31.922z
		 M135.354,397.341c-11.045,11.05-29.025,11.05-40.08,0l-63.662-63.663c-11.044-11.039-11.035-29.025,0.01-40.07
		c0,0,26.438-26.434,62.486-62.477c4.502,4.502,9.283,9.283,13.949,13.954c-1.997,0.758-3.893,1.905-5.496,3.515
		c-6.076,6.09-6.076,15.937-0.01,22.012c6.096,6.072,15.928,6.072,22.014,0c1.611-1.616,2.754-3.497,3.512-5.5
		c12.414,12.416,24.938,24.937,37.34,37.334c-2.006,0.76-3.893,1.904-5.502,3.521c-6.076,6.072-6.076,15.928,0,21.993
		c6.078,6.082,15.928,6.082,22.014,0c1.604-1.606,2.756-3.489,3.514-5.496c4.133,4.14,8.391,8.396,12.385,12.396
		C161.784,370.906,135.354,397.341,135.354,397.341z M397.05,333.678l-63.656,63.663c-11.057,11.05-29.033,11.05-40.089,0
		c0,0-26.431-26.435-62.486-62.478c-5.299-5.313-10.812-10.823-16.492-16.502c-32.842-32.85-70.877-70.877-103.713-103.744
		c-5.693-5.664-11.205-11.185-16.508-16.493c-36.048-36.043-62.48-62.472-62.48-62.472c-11.045-11.054-11.045-29.025-0.01-40.075
		l63.666-63.653c5.344-5.361,12.472-8.304,20.035-8.304c7.576,0,14.699,2.947,20.045,8.304l62.477,62.477l16.504,16.493
		l103.721,103.729l16.518,16.512l62.479,62.477c5.354,5.351,8.307,12.474,8.307,20.035
		C405.361,321.213,402.404,328.326,397.05,333.678z"/>
	<path d="M231.268,155.344c-9.354-9.354-24.516-9.354-33.883,0l-42.326,42.35c-9.355,9.347-9.375,24.515,0,33.869l42.326,42.352
		c9.363,9.354,24.521,9.354,33.883,0l42.347-42.352c9.346-9.346,9.346-24.514,0-33.869L231.268,155.344z"/>
	<circle cx="316.677" cy="113.853" r="15.562"/>
	<circle cx="313.148" cy="60.03" r="15.557"/>
	<circle cx="370.501" cy="117.385" r="15.557"/>
	<circle cx="117.096" cy="313.437" r="15.562"/>
	<circle cx="63.268" cy="309.899" r="15.552"/>
	<path d="M109.641,356.257c-6.096,6.067-6.096,15.922,0,21.999c6.066,6.072,15.918,6.081,21.984,0
		c6.098-6.082,6.098-15.932,0-21.999C125.557,350.186,115.704,350.186,109.641,356.257z"/>
	<circle cx="310.001" cy="310.686" r="15.566"/>
	<path d="M317.46,267.865c6.078-6.082,6.078-15.932,0.012-22.004c-6.088-6.076-15.928-6.076-22.014,0
		c-6.065,6.072-6.078,15.922,0,22.004C301.544,273.938,311.388,273.938,317.46,267.865z"/>
	<circle cx="363.832" cy="314.219" r="15.557"/>
	<circle cx="256.184" cy="307.144" r="15.557"/>
	<circle cx="313.537" cy="364.504" r="15.562"/>
	<circle cx="119.448" cy="120.141" r="15.557"/>
	<circle cx="115.918" cy="66.313" r="15.557"/>
	<circle cx="173.274" cy="123.673" r="15.557"/>
	<circle cx="65.635" cy="116.603" r="15.557"/>
	<circle cx="122.991" cy="173.958" r="15.552"/>
</g>
</svg>
