<?xml version="1.0" encoding="utf-8"?>
<!-- Generator: Adobe Illustrator 16.0.4, SVG Export Plug-In . SVG Version: 6.00 Build 0)  -->
<!DOCTYPE svg PUBLIC "-//W3C//DTD SVG 1.1//EN" "http://www.w3.org/Graphics/SVG/1.1/DTD/svg11.dtd">
<svg version="1.1" id="Calque_1" xmlns="http://www.w3.org/2000/svg" xmlns:xlink="http://www.w3.org/1999/xlink" x="0px" y="0px"
	 width="431.324px" height="403.693px" viewBox="0 0 431.324 403.693" enable-background="new 0 0 431.324 403.693"
	 xml:space="preserve">
<path d="M431.324,309.652c0-0.776-0.164-1.551-0.494-2.256c-4.504-9.927-18.566-8.361-33.418-6.683
	c-9.332,1.047-19.73,2.213-25.988,0.271c0.928-3.518,2.02-9.584-3.09-15.062c-9.227-13.579-34.066-17.516-64.695-10.649
	l18.723-116.898c19.908-26.275,30.975-60.14,32.967-101.112c0.699-1.176,1.084-2.342,1.266-3.489
	c0.977-6.164-4.377-10.824-9.268-12.94c-0.365-0.159-0.74-0.278-1.133-0.352c-7.666-1.488-14.732-2.722-22.092-3.907
	c0.277-1.646,0.266-3.114,0.105-4.291c-0.678-5.213-3.994-8.971-6.846-11.299c-1.264-5.712-4.471-8.539-6.971-9.912
	c-2.102-1.146-4.508-1.731-7.143-1.731c-2.062,0-4.248,0.345-6.504,1.042c-6.5-6.327-13.473-9.533-20.941-9.533c0,0-0.006,0-0.01,0
	c-6.266,0.053-11.354,2.563-14.785,4.939C256.16,1.944,250.996,0,245.65,0c-0.723,0-1.439,0.032-2.166,0.101
	c-7.982,0.797-14.24,5.847-18.303,10.32c-2.855-1.44-5.994-2.165-9.351-2.165c-8.053,0-15.312,4.205-18.666,6.494
	c-2.871-1.009-5.646-1.518-8.262-1.518c-2.848,0-5.555,0.601-8.045,1.791c-4.709,2.251-7.508,6.086-9.102,9.188
	c-3.25,0.303-6,0.945-8.398,1.775C78.119,27.811,19.878,40.31,18.93,40.512c-0.245,0.053-0.48,0.12-0.715,0.207
	c-4.608,1.68-19.541,7.978-18.12,18.562c0.168,1.263,0.547,2.544,1.252,3.835c-0.148,8.529-0.058,79.233,39.97,122.865
	l20.463,132.398c0.293,1.877,1.525,3.461,3.273,4.189c6.643,2.793,13.271,5.149,19.881,7.324c-1.287,0.772-2.529,1.612-3.691,2.559
	c-6.812,5.583-10.564,13.422-10.564,22.08c0,6.901,2.16,12.207,6.427,15.777c9.466,7.92,26.035,4.973,45.226,1.54
	c15.711-2.803,31.945-5.706,42.572-2.174c3.047,1.22,3.521,3.101,3.801,9.917c0.365,9.014,0.979,24.102,28.492,24.102
	c15.25,0,23.617-9.678,30.337-17.459c3.93-4.539,7.334-8.479,11.096-9.541c10.965-1.487,22.369,1.051,33.404,3.498
	c11.193,2.486,22.762,5.068,33.455,3.278c20.146-2.516,24.754-13.854,27.807-21.36c1.355-3.33,2.16-5.078,3.223-5.647
	c4.482-0.604,13.838-0.277,23.713,0.065c36.518,1.277,62.803,1.102,68.438-12.557c3.043-7.367-1.482-15.029-7.1-21.331
	C430.767,317.462,431.324,311.108,431.324,309.652z M346.679,64.128c-2.238,28.818-9.318,53.73-21.15,74.534l11.352-70.854
	C340.886,66.595,344.117,65.361,346.679,64.128z M131.588,58.267c5.193-6.989,13.248-15.744,19.924-15.744
	c1.215,0,2.318,0.283,3.387,0.859l1.92,1.026l0.455-2.136c0.082-0.389,2.227-9.557,19.396-9.557l1.32,0.005l0.287-1.287
	c0.086-0.389,2.223-9.479,10.627-9.479c2.516,0,5.398,0.802,8.574,2.386l0.979,0.489l0.826-0.721
	c0.086-0.071,8.227-7.128,16.455-7.128c3.728,0,6.949,1.493,9.56,4.425l1.494,1.676l1.137-1.926
	c0.072-0.125,7.471-12.44,17.703-12.44c4.689,0,9.395,2.597,13.975,7.718l1.27,1.426l1.211-1.482
	c0.062-0.072,5.648-6.816,13.924-6.816c5.943,0,11.887,3.461,17.65,10.291l0.869,1.027l1.17-0.653
	c0.039-0.024,3.938-2.155,7.59-2.155c2.332,0,5.486,0.726,5.879,7.052l0.059,0.896l0.781,0.438c0.061,0.023,5.045,2.841,5.578,6.979
	c0.293,2.29-0.863,4.69-3.422,7.128l-1.205,1.147l1.162,1.181c0.027,0.02,2.062,2.194,1.473,3.994
	c-0.053,0.159-0.146,0.341-0.271,0.533c-10.551,2.208-51.701,9.586-135.021,10.866C160.973,58.546,145.455,58.512,131.588,58.267z
	 M21.61,51.076c4.642-0.96,50.275-10.291,118.202-13.426c-8.432,5.415-15.348,15.115-18.691,20.392
	c-56.934-1.498-81.957-6.49-82.272-6.553c-2.218-0.456-4.373,0.971-4.824,3.184c-0.456,2.208,0.97,4.368,3.179,4.818
	c1.541,0.321,35.688,7.143,117.139,7.143c7.604,0,15.639-0.059,24.082-0.188C277.32,64.93,316.542,55.114,318.16,54.7
	c0.701-0.183,1.271-0.575,1.758-1.051c0.25-0.202,0.471-0.437,0.652-0.729c0.059-0.091,0.102-0.179,0.146-0.273
	c0.408-0.729,0.74-1.704,1.152-3.058c0.24-0.773,0.283-1.589,0.354-2.396c7.062,1.167,13.863,2.438,21.213,3.854
	c0.711,0.37,1.459,0.869,1.943,1.301c-1.182,1.085-4.709,3.283-14.549,5.914c-0.082,0.019-0.154,0.039-0.234,0.062
	c-11.002,2.918-29.812,6.365-62.17,9.428c-3,0.282-5.203,2.938-4.91,5.933c0.283,2.995,2.973,5.194,5.93,4.906
	c25.176-2.376,43.123-5.035,55.92-7.829l-14.17,88.469c-5.035,5.918-10.574,11.38-16.645,16.377
	c-19.594,16.143-42.854,26.021-66.781,31.877c-2.148-2.684-5.412-4.436-9.125-4.436H100.412c-3.715,0-6.99,1.762-9.135,4.464
	c-15.888-4.589-28.703-12.423-39.023-22.187l-2.784-17.994c15.595,4.607,54.274,13.525,120.167,13.525
	c24.26,0,52.199-1.209,84.005-4.296c2.244-0.221,3.893-2.218,3.678-4.464c-0.217-2.247-2.275-3.888-4.465-3.677
	c-124.08,12.038-189.398-5.229-204.777-10.109L35.699,78.229c13.189,2.635,31.176,5.054,55.688,7.094
	c0.153,0.02,0.302,0.024,0.456,0.024c2.803,0,5.189-2.15,5.424-4.997c0.25-3-1.982-5.635-4.979-5.885
	c-29.653-2.473-48.484-5.435-60.479-8.155c-0.936-0.562-2.021-0.845-3.168-0.754c-15.519-3.864-17.52-7.094-17.746-7.502
	C11.342,56.385,16.589,52.987,21.61,51.076z M9.59,70.21c3.504,1.838,8.261,3.638,14.674,5.371l14.583,94.33
	C13.974,134.995,10.115,88.339,9.59,70.21z M60.5,238.714c15.897,4.747,56.025,14.895,108.912,14.895
	c28.934,0,61.669-3.048,96.253-11.698c2.193-0.547,3.518-2.765,2.977-4.948c-0.543-2.193-2.799-3.523-4.947-2.977
	c-101.96,25.488-187.142,1.354-204.58-4.237l-4.92-31.862c9.643,7.498,21.076,13.507,34.545,17.419
	c0.283,6.229,5.377,11.203,11.674,11.203h118.24c6.293,0,11.387-4.963,11.674-11.193c24.803-6.139,48.961-16.531,69.432-33.397
	c3.197-2.631,6.217-5.43,9.143-8.3L286.48,313.606c-17.648,6.604-116.218,39.897-214.396,0.082L60.5,238.714z M408.355,324.749
	c11.562,10.74,10.416,14.645,10.248,15.058c-3.191,7.713-41.604,6.398-57.988,5.822c-11.799-0.398-21.104-0.726-26.436,0.158
	c-0.277,0.053-0.553,0.114-0.818,0.204c-6.104,2.041-8.258,7.33-10.158,12.017c-2.697,6.645-5.25,12.917-19.281,14.684
	c-8.822,1.459-18.879-0.769-29.516-3.135c-12.092-2.691-24.58-5.477-37.627-3.613c-0.184,0.027-0.365,0.066-0.543,0.109
	c-7.203,1.8-12.152,7.521-16.936,13.057c-6.082,7.041-11.828,13.688-22.093,13.688c-17.051,0-17.246-4.853-17.607-13.649
	c-0.268-6.576-0.633-15.592-10.938-19.699c-13.555-4.53-31.188-1.379-48.23,1.67c-15.114,2.701-30.748,5.486-36.314,0.841
	c-0.625-0.527-2.525-2.121-2.525-7.431c0-5.328,2.332-10.178,6.58-13.655c5.094-4.177,12.326-5.827,19.388-4.519
	c23.683,5.592,46.675,7.729,67.954,7.729c65.597,0,114.888-20.229,117.962-21.521c1.734-0.725,2.975-2.299,3.273-4.156l5.041-31.474
	c30.615-7.786,52.1-3.37,57.701,5.356c0.211,0.329,0.455,0.639,0.729,0.911c1.438,1.432,1.395,2.468,0.451,5.826
	c-0.504,1.814-1.086,3.869-0.678,6.049c0.27,1.416,1.076,2.664,2.262,3.484c8.779,6.081,22.824,4.508,36.379,2.985
	c5.686-0.635,16.477-1.85,20.664-0.672c-1.252,1.285-3.777,3.086-8.871,4.688c-1.848,0.586-3.254,2.104-3.682,3.998
	C406.32,321.456,406.935,323.429,408.355,324.749z"/>
</svg>
