<?xml version="1.0" encoding="utf-8"?>
<!-- Generator: Adobe Illustrator 16.0.4, SVG Export Plug-In . SVG Version: 6.00 Build 0)  -->
<!DOCTYPE svg PUBLIC "-//W3C//DTD SVG 1.1//EN" "http://www.w3.org/Graphics/SVG/1.1/DTD/svg11.dtd">
<svg version="1.1" id="Calque_1" xmlns="http://www.w3.org/2000/svg" xmlns:xlink="http://www.w3.org/1999/xlink" x="0px" y="0px"
	 width="431.529px" height="398.223px" viewBox="0 0 431.529 398.223" enable-background="new 0 0 431.529 398.223"
	 xml:space="preserve">
<path d="M155.228,398.221c-7.68,0-14.88-2.88-20.158-8.16L9.308,260.461c-12-11.041-12.48-29.759-0.96-41.759
	c11.04-12,29.759-12.48,41.759-0.961l92.16,65.762c5.28,4.8,13.44,3.84,17.762-1.922l218.398-269.76
	c9.603-12.96,28.32-15.84,41.28-5.76c12.96,9.601,15.84,28.32,5.76,41.28l-246.72,338.88c-5.28,6.72-12.96,11.04-21.12,11.52
	C156.668,398.221,156.188,398.221,155.228,398.221z"/>
</svg>
