<?xml version="1.0" encoding="utf-8"?>
<!-- Generator: Adobe Illustrator 16.0.4, SVG Export Plug-In . SVG Version: 6.00 Build 0)  -->
<!DOCTYPE svg PUBLIC "-//W3C//DTD SVG 1.1//EN" "http://www.w3.org/Graphics/SVG/1.1/DTD/svg11.dtd">
<svg version="1.1" id="Calque_1" xmlns="http://www.w3.org/2000/svg" xmlns:xlink="http://www.w3.org/1999/xlink" x="0px" y="0px"
	 width="261.748px" height="303.145px" viewBox="0 0 261.748 303.145" enable-background="new 0 0 261.748 303.145"
	 xml:space="preserve">
<g>
	<g>
		<path d="M113.54,238.975c-0.12-0.006-0.211-0.006-0.312-0.01c-5.933-0.273-7.449-5.838-9.053-11.729
			c-2.311-8.48-6.173-22.676-19.651-37.818C61.21,163.199,54.355,125.967,67.46,96.763c11.726-26.126,37.588-41.111,70.949-41.111
			c33.357,0,59.223,14.985,70.947,41.111c13.104,29.203,6.254,66.438-17.062,92.655c-15.104,16.973-22.758,27.119-22.758,30.154
			c0,2.854-1.91,5.352-4.672,6.102C116.222,238.856,114.595,238.975,113.54,238.975z M138.413,68.287
			c-28.58,0-49.687,11.952-59.426,33.653c-11.105,24.743-5.093,56.525,14.978,79.08c15.456,17.377,19.973,33.988,22.402,42.912
			c0.125,0.477,0.264,0.98,0.401,1.48c8.354-2.127,27.059-7.133,41.006-10.906c2.029-5.904,8.262-14.568,25.084-33.484
			c20.068-22.555,26.09-54.336,14.979-79.08C188.097,80.24,166.991,68.287,138.413,68.287z"/>
		<path d="M136.823,305.053c-2.822,0-5.391-1.9-6.115-4.762c-0.859-3.381,1.185-6.822,4.562-7.682l31.264-7.947
			c3.363-0.846,6.82,1.18,7.682,4.562c0.857,3.381-1.188,6.822-4.566,7.682l-31.262,7.947
			C137.864,304.985,137.337,305.053,136.823,305.053z"/>
		<path d="M112.417,275.998c-2.81,0-5.371-1.893-6.105-4.73c-0.878-3.379,1.147-6.822,4.521-7.695l55.67-14.453
			c3.389-0.902,6.824,1.148,7.699,4.52c0.877,3.379-1.148,6.824-4.521,7.699l-55.67,14.453
			C113.477,275.93,112.939,275.998,112.417,275.998z"/>
		<path d="M112.417,293.998c-2.81,0-5.371-1.893-6.105-4.73c-0.878-3.379,1.147-6.822,4.521-7.695l55.67-14.453
			c3.389-0.896,6.824,1.148,7.699,4.52c0.877,3.379-1.148,6.824-4.521,7.699l-55.67,14.453
			C113.477,293.93,112.939,293.998,112.417,293.998z"/>
		<path d="M112.417,257.998c-2.81,0-5.371-1.893-6.105-4.73c-0.878-3.379,1.147-6.822,4.521-7.695l55.67-14.453
			c3.389-0.902,6.824,1.145,7.699,4.52c0.877,3.379-1.148,6.824-4.521,7.699l-55.67,14.453
			C113.477,257.93,112.939,257.998,112.417,257.998z"/>
	</g>
	<path d="M32.116,144.219H6.317c-3.49,0-6.317-2.827-6.317-6.316c0-3.49,2.831-6.317,6.317-6.317h25.799
		c3.49,0,6.317,2.827,6.317,6.317C38.433,141.391,35.601,144.219,32.116,144.219z"/>
	<path d="M46.537,90.372c-1.075,0-2.16-0.274-3.154-0.851L21.043,76.62c-3.02-1.743-4.057-5.606-2.309-8.63
		c1.746-3.024,5.615-4.047,8.629-2.31l22.34,12.902c3.019,1.743,4.056,5.605,2.309,8.63C50.842,89.24,48.72,90.372,46.537,90.372z"
		/>
	<path d="M85.968,50.95c-2.18,0-4.301-1.133-5.477-3.159L67.589,25.452c-1.743-3.02-0.706-6.888,2.309-8.63
		c3.017-1.742,6.883-0.71,8.63,2.309L91.43,41.469c1.743,3.021,0.706,6.889-2.309,8.631C88.128,50.676,87.043,50.95,85.968,50.95z"
		/>
	<path d="M139.813,36.52c-3.486,0-6.314-2.826-6.314-6.315V4.409c0-3.49,2.832-6.317,6.314-6.317c3.486,0,6.318,2.827,6.318,6.317
		v25.795C146.132,33.694,143.304,36.52,139.813,36.52z"/>
	<path d="M193.661,50.954c-1.076,0-2.16-0.273-3.154-0.851c-3.021-1.741-4.055-5.605-2.309-8.63l12.9-22.339
		c1.748-3.02,5.617-4.051,8.631-2.309c3.021,1.743,4.059,5.605,2.311,8.63l-12.902,22.339
		C197.962,49.822,195.841,50.954,193.661,50.954z"/>
	<path d="M233.093,90.377c-2.18,0-4.301-1.133-5.479-3.158c-1.74-3.019-0.703-6.888,2.311-8.63l22.34-12.902
		c3.01-1.742,6.883-0.71,8.629,2.31c1.744,3.02,0.707,6.888-2.309,8.63l-22.338,12.902
		C235.253,90.102,234.163,90.377,233.093,90.377z"/>
	<path d="M255.423,210.977c-1.076,0-2.16-0.273-3.154-0.852l-22.34-12.902c-3.018-1.742-4.055-5.605-2.309-8.631
		c1.748-3.018,5.615-4.061,8.631-2.309l22.34,12.902c3.02,1.742,4.055,5.605,2.309,8.631
		C259.728,209.844,257.603,210.977,255.423,210.977z"/>
	<path d="M85.958,231.176"/>
	<path d="M24.206,210.967c-2.178,0-4.301-1.133-5.477-3.158c-1.742-3.023-0.705-6.887,2.309-8.631l22.34-12.9
		c3.015-1.748,6.883-0.711,8.63,2.309c1.743,3.023,0.706,6.887-2.309,8.631L27.36,210.119
		C26.366,210.699,25.282,210.967,24.206,210.967z"/>
</g>
</svg>
