<?xml version="1.0" encoding="utf-8"?>
<!-- Generator: Adobe Illustrator 16.0.4, SVG Export Plug-In . SVG Version: 6.00 Build 0)  -->
<!DOCTYPE svg PUBLIC "-//W3C//DTD SVG 1.1//EN" "http://www.w3.org/Graphics/SVG/1.1/DTD/svg11.dtd">
<svg version="1.1" id="Calque_1" xmlns="http://www.w3.org/2000/svg" xmlns:xlink="http://www.w3.org/1999/xlink" x="0px" y="0px"
	 width="441.365px" height="460.003px" viewBox="0 0 441.365 460.003" enable-background="new 0 0 441.365 460.003"
	 xml:space="preserve">
<g>
	<path d="M411.278,55.824l-110.1,89.79c-4.58-4.06-9.52-7.71-14.619-11.05l69.59-105.74c2.393-3.63,14.42-26.23,10.801-28.61
		c-3.648-2.41-21.578,16.28-23.961,19.93l-70.131,106.54c-23.459-11.7-50.629-16.42-78.389-11.46
		c-68.78,12.3-114.75,78.31-102.43,147.1c2.709,15.039,8.07,28.879,15.34,41.34l-94.33,76.949c-0.45,0.351-0.7,0.851-1.06,1.261
		c-4.51-1.647-8.67-1.568-10.73,0.899c-3.14,3.851-0.21,11.49,6.57,17.062c6.82,5.629,14.84,7.062,18.02,3.221
		c2.13-2.62,1.3-7.012-1.52-11.329l91.86-74.892c5.49,7.198,11.932,13.539,18.76,19.368l-65.79,99.98
		c-3.93-1.102-7.42-0.83-9.239,1.398c-3.16,3.842-0.25,11.473,6.55,17.062c6.79,5.619,14.85,7.039,18,3.209
		c2.391-2.91,1.27-7.969-2.35-12.709l65.489-99.471c26.12,17.18,58.42,25.01,91.521,19.078
		c68.83-12.301,114.76-78.277,102.451-147.088c-4.184-23.38-14.691-44.02-29.271-60.74l108.939-88.85
		c3.391-2.75,22.59-21.6,19.85-24.97C438.31,39.664,414.64,53.104,411.278,55.824z M272.819,144.634
		c-40.449,1.31-82.949,18.63-103.979,28.54c1.29-4.68,2.67-8.93,4.04-12.85l0.02,0.06c0.37-0.22,40.03-21.73,86.142-19.73l0.09-2.78
		c1.68,0.7,3.438,1.21,5.066,1.97C267.198,141.254,269.948,142.984,272.819,144.634z M284.778,187.844
		c5.973,12.27,24.33,55.37,22.053,116.84c-4.102,5.711-8.699,11.041-13.842,15.891c7-56.211-7.131-110.53-14.221-133.01
		C280.749,187.634,282.749,187.725,284.778,187.844z M278.46,270.554c0.52,7.36,0.729,14.921,0.629,22.582
		c-21.709,29.55-57.76,52.341-66.57,57.658c-3.38-0.171-6.7-0.438-10-0.858C222.579,334.104,258.819,302.915,278.46,270.554z
		 M277.249,319.735c-0.643,4.93-1.459,9.851-2.449,14.779c-8.721,5.381-18.312,9.619-28.57,12.461
		C255.989,339.625,267.05,330.375,277.249,319.735z M262.198,187.654c2.924,8.79,8.674,28.03,12.691,52.52
		c-2.441,9.87-8.02,20.29-15.301,30.62c-1.689-35.14-2.029-70.3-0.102-82.92C260.419,187.794,261.278,187.725,262.198,187.654z
		 M244.8,289.274c-4.031,4.479-8.15,8.961-12.371,13.17c-2.68-34.479-4.76-91.939,4.48-112.009c2.148-0.39,4.459-0.64,6.697-1
		C240.788,215.254,243.47,267.514,244.8,289.274z M217.79,316.325c-6.432,5.8-12.63,11.109-18.092,15.59
		c-4.38-26.76-13.84-101.07,8.12-133.54c3.552-1.31,7.302-2.51,11.29-3.67C210.449,230.454,215.959,297.594,217.79,316.325z
		 M185.629,343.044c-1.11,0.86-2.142,1.642-2.98,2.262c-0.97-0.301-1.92-0.721-2.89-1.062c-16.39-46.34-20.62-86.1-19.14-118.291
		c2.658-2.529,11.108-9.949,25.21-17.669C170.12,255.565,183.16,330.065,185.629,343.044z M215.469,129.034
		c-13.38,2.87-24.96,6.6-33.56,10c1.198-2.33,2.21-4.06,2.948-5.3c4.03-1.2,8.142-2.26,12.38-3.02
		C203.379,129.594,209.459,129.084,215.469,129.034z M116.29,193.145c-3.86,24.24-6.15,57.1-0.311,92.23
		c-3.689-8.13-6.81-16.66-8.449-25.83C103.37,236.155,106.929,213.174,116.29,193.145z M143.629,322.934
		c-0.72-0.619-1.37-1.352-2.11-2c-26.63-72.34-5.35-148.84-1.66-160.88c6.67-6.46,14.23-11.98,22.432-16.64
		c-13.63,31.42-31.45,97.481-2.2,191.45c-1.3-0.77-2.61-1.489-3.892-2.311C151.83,329.655,147.629,326.444,143.629,322.934z
		 M322.149,274.864c-2.568-39.6-12.5-69.199-19.25-85.16c4.529,0.62,9.16,1.34,13.92,2.29c4.25,8.81,7.449,18.32,9.262,28.42
		C329.429,239.274,327.829,257.875,322.149,274.864z M305.81,174.244c-72.951-10.49-121.25,14.44-143.39,30.15
		c0.528-4.03,1.188-7.72,1.858-11.42c10.19-5.3,79.432-40.04,130.709-31.23c1.682,1.71,3.512,3.28,5.119,5.09
		C302.149,169.164,303.938,171.754,305.81,174.244z"/>
</g>
</svg>
