<?xml version="1.0" encoding="utf-8"?>
<!-- Generator: Adobe Illustrator 16.0.4, SVG Export Plug-In . SVG Version: 6.00 Build 0)  -->
<!DOCTYPE svg PUBLIC "-//W3C//DTD SVG 1.1//EN" "http://www.w3.org/Graphics/SVG/1.1/DTD/svg11.dtd">
<svg version="1.1" id="Calque_1" xmlns="http://www.w3.org/2000/svg" xmlns:xlink="http://www.w3.org/1999/xlink" x="0px" y="0px"
	 width="432px" height="251.396px" viewBox="0 0 432 251.396" enable-background="new 0 0 432 251.396" xml:space="preserve">
<g>
	<path d="M432,131.737c0-12.048-6.048-23.829-16.161-31.518c-9.721-7.388-22.114-10.161-34.556-7.887
		C357,56.814,316.325,0.744,217.146,0.022C217.032,0.011,216.917,0,216.805,0c-0.271,0-0.531,0.011-0.802,0.011
		c-0.269,0-0.538-0.011-0.807-0.011c-0.105,0-0.228,0.011-0.343,0.021C115.686,0.746,74.998,56.806,50.718,92.333
		c-12.432-2.284-24.826,0.499-34.55,7.887C6.043,107.908,0,119.688,0,131.737c0,20.121,16.377,32.063,35.001,35.141l32.728,56.299
		c1.08,1.855,3.071,3,5.217,3h9.068c0.071,0.582,0.215,1.154,0.465,1.724l8.588,19.858c0.951,2.203,3.125,3.638,5.535,3.638h234.501
		c2.177,0,4.174-1.16,5.254-3.058l11.271-19.856c0.412-0.73,0.667-1.508,0.748-2.306h11.972c2.146,0,4.135-1.139,5.213-3
		l32.883-56.561C416.458,163.173,432,151.341,432,131.737z M356.87,214.108h-37.464c-3.326,0-6.038,2.703-6.038,6.033
		c0,3.338,2.702,6.049,6.038,6.049h15.639l-7.464,13.139H100.564l-5.688-13.139h176.099c3.336,0,6.037-2.703,6.037-6.049
		c0-3.326-2.701-6.033-6.037-6.033H76.416l-27.043-46.512c28.594-1.123,47.592-12.57,56.189-19.104
		c6.84,7.432,22.521,19.205,53.249,19.205c31.291,0,49.325-11.434,57.179-18.092c7.355,6.207,25.562,18.092,57.188,18.092
		c30.723,0,46.406-11.773,53.251-19.201c8.719,6.629,28.146,18.312,57.451,19.148L356.87,214.108z M387.197,155.612
		c-36.984,0-57.217-19.877-57.403-20.064c-1.349-1.366-3.274-2.028-5.175-1.741c-1.901,0.288-3.571,1.459-4.476,3.157
		c-0.097,0.188-10.259,18.648-46.969,18.648c-29.409,0-45.01-11.242-50.352-16.076c-0.423-0.383-2.314-2.467-3.062-3.061
		c-2.604-2.095-6.401-1.67-8.489,0.926c-0.149,0.188-15.021,18.197-52.471,18.197c-36.152,0-46.583-17.935-46.978-18.642
		c-0.903-1.703-2.555-2.885-4.469-3.156c-1.9-0.289-3.836,0.363-5.185,1.736c-0.196,0.201-20.116,20.062-57.403,20.062
		c-11.312,0-32.716-4.988-32.716-23.882c0-8.298,4.257-16.482,11.39-21.901c7.92-6.02,17.971-7.752,28.301-4.887
		c2.49,0.695,5.15-0.277,6.604-2.414l0.5-0.727c24.303-35.635,60.979-89.429,157.138-89.729
		c96.156,0.303,132.845,54.101,157.133,89.729l0.499,0.727c1.464,2.136,4.104,3.104,6.601,2.414
		c10.319-2.875,20.371-1.133,28.303,4.887c7.134,5.419,11.397,13.604,11.397,21.901C419.923,150.624,398.52,155.612,387.197,155.612
		z"/>
	<path d="M215.995,35.002c-11.957,0-17.304,19.731-17.304,39.303c0,19.563,5.352,39.302,17.304,39.302
		c11.957,0,17.31-19.737,17.31-39.302C233.305,54.739,227.952,35.002,215.995,35.002z M215.995,100.801
		c-2.03-2.972-5.232-12.071-5.232-26.485c0-14.415,3.202-23.511,5.232-26.487c2.026,2.972,5.237,12.072,5.237,26.487
		C221.232,88.728,218.021,97.815,215.995,100.801z"/>
	<path d="M163.565,40.114c-1.548-0.883-3.271-1.319-5.133-1.319c-10.339,0-22.253,14.533-29.304,26.989
		c-4.699,8.29-8.035,16.791-9.403,23.929c-2.271,11.864,1.509,16.771,5.09,18.796c1.541,0.878,3.269,1.314,5.122,1.314
		c10.349,0,22.257-14.53,29.304-26.976c4.699-8.295,8.044-16.791,9.413-23.938C170.909,47.039,167.131,42.139,163.565,40.114z
		 M148.728,76.896c-7.099,12.538-14.376,18.878-17.604,20.458c-0.302-3.586,1.406-13.08,8.505-25.618
		c7.119-12.562,14.4-18.902,17.611-20.472C157.541,54.844,155.846,64.344,148.728,76.896z"/>
	<path d="M301.699,65.783c-7.062-12.451-18.965-26.989-29.305-26.989c-1.867,0-3.593,0.44-5.129,1.319
		c-10.396,5.899-5.32,25.704,4.32,42.729c7.051,12.445,18.955,26.98,29.304,26.98l0,0c1.867,0,3.594-0.441,5.128-1.314
		c3.688-2.088,7.519-7.177,4.909-19.607C309.48,81.936,306.197,73.723,301.699,65.783z M299.684,97.34
		c-3.242-1.6-10.508-7.931-17.598-20.447c-7.104-12.542-8.803-22.037-8.5-25.622c3.227,1.589,10.502,7.92,17.605,20.462
		c3.906,6.888,6.721,13.861,7.93,19.646C299.717,94.242,299.774,96.188,299.684,97.34z"/>
</g>
</svg>
