<?xml version="1.0" encoding="utf-8"?>
<!-- Generator: Adobe Illustrator 16.0.4, SVG Export Plug-In . SVG Version: 6.00 Build 0)  -->
<!DOCTYPE svg PUBLIC "-//W3C//DTD SVG 1.1//EN" "http://www.w3.org/Graphics/SVG/1.1/DTD/svg11.dtd">
<svg version="1.1" id="Calque_1" xmlns="http://www.w3.org/2000/svg" xmlns:xlink="http://www.w3.org/1999/xlink" x="0px" y="0px"
	 width="192px" height="307.2px" viewBox="0 0 192 307.2" enable-background="new 0 0 192 307.2" xml:space="preserve">
<g>
	<path d="M96,0c-52.935,0-96,43.066-96,96C0,106.604,8.597,115.2,19.2,115.2c10.603,0,19.2-8.598,19.2-19.201
		C38.4,64.239,64.238,38.4,96,38.4s57.6,25.838,57.6,57.599c0,31.763-25.838,57.601-57.6,57.601c-10.603,0-19.2,8.596-19.2,19.2v48
		c0,10.604,8.599,19.199,19.2,19.199c10.604,0,19.2-8.596,19.2-19.199v-30.725c43.762-8.924,76.8-47.712,76.8-94.076
		C192,43.066,148.93,0,96,0z"/>
	<circle cx="96" cy="288" r="19.2"/>
</g>
</svg>
