<?xml version="1.0" encoding="utf-8"?>
<!-- Generator: Adobe Illustrator 16.0.4, SVG Export Plug-In . SVG Version: 6.00 Build 0)  -->
<!DOCTYPE svg PUBLIC "-//W3C//DTD SVG 1.1//EN" "http://www.w3.org/Graphics/SVG/1.1/DTD/svg11.dtd">
<svg version="1.1" id="Calque_1" xmlns="http://www.w3.org/2000/svg" xmlns:xlink="http://www.w3.org/1999/xlink" x="0px" y="0px"
	 width="625.914px" height="641.36px" viewBox="0 0 625.914 641.36" enable-background="new 0 0 625.914 641.36"
	 xml:space="preserve">
<g>
	<path d="M612.736,564.584L416.009,367.856c26.592-36.695,42.496-81.654,42.496-130.359c0-2.496-0.345-4.889-0.736-7.266
		c0.4-2.406,0.744-4.84,0.744-7.375C458.513,99.975,358.537,0,235.656,0c-2.184,0-4.288,0.344-6.392,0.64
		c-2.12-0.296-4.208-0.64-6.392-0.64C99.983,0,0.009,99.975,0.009,222.856c0,2.496,0.336,4.889,0.736,7.271
		C0.336,232.536,0,234.959,0,237.497c0,122.879,99.968,222.861,222.856,222.861c2.186,0,4.28-0.344,6.4-0.646
		c2.104,0.305,4.19,0.646,6.384,0.646c41.664,0,80.568-11.711,113.96-31.703l199.528,199.529
		c8.792,8.791,20.296,13.176,31.808,13.176s23.032-4.393,31.808-13.176C630.305,610.624,630.305,582.151,612.736,564.584z
		 M229.257,371.047c-2.12-0.303-4.208-0.648-6.4-0.648c-73.28,0-132.896-59.613-132.896-132.895c0-2.496-0.336-4.889-0.736-7.264
		c0.408-2.408,0.744-4.842,0.744-7.379c0-73.277,59.624-132.895,132.904-132.895c2.176,0,4.271-0.336,6.392-0.633
		c2.104,0.297,4.2,0.633,6.392,0.633c73.28,0,132.896,59.615,132.896,132.895c0,2.496,0.344,4.891,0.736,7.273
		c-0.4,2.408-0.752,4.832-0.752,7.367c0,73.281-59.616,132.896-132.896,132.896C233.448,370.399,231.353,370.745,229.257,371.047z"
		/>
</g>
</svg>
