<?xml version="1.0" encoding="utf-8"?>
<!-- Generator: Adobe Illustrator 16.0.4, SVG Export Plug-In . SVG Version: 6.00 Build 0)  -->
<!DOCTYPE svg PUBLIC "-//W3C//DTD SVG 1.1//EN" "http://www.w3.org/Graphics/SVG/1.1/DTD/svg11.dtd">
<svg version="1.1" id="Calque_1" xmlns="http://www.w3.org/2000/svg" xmlns:xlink="http://www.w3.org/1999/xlink" x="0px" y="0px"
	 width="311.007px" height="373.204px" viewBox="0 0 311.007 373.204" enable-background="new 0 0 311.007 373.204"
	 xml:space="preserve">
<path d="M259.175,269.53c-14.461,0-27.52,5.928-36.916,15.471c-35.736-23.217-86.5-56.217-122.217-79.436
	c2.309-5.875,3.623-12.264,3.623-18.965s-1.314-13.09-3.629-18.971l122.219-79.436c9.402,9.542,22.459,15.47,36.916,15.47
	c28.623,0,51.836-23.203,51.836-51.83S287.794,0,259.171,0c-28.637,0-51.846,23.203-51.846,51.835
	c0,6.701,1.314,13.089,3.635,18.969l-122.209,79.44c-9.398-9.547-22.463-15.476-36.916-15.476C23.208,134.768,0,157.975,0,186.602
	s23.203,51.83,51.836,51.83c14.453,0,27.514-5.922,36.916-15.475l122.209,79.445c-2.314,5.881-3.635,12.264-3.635,18.971
	c0,28.621,23.209,51.83,51.846,51.83c28.623,0,51.836-23.209,51.836-51.83C311.007,292.733,287.798,269.53,259.175,269.53z"/>
</svg>
