<?xml version="1.0" encoding="utf-8"?>
<!-- Generator: Adobe Illustrator 16.0.4, SVG Export Plug-In . SVG Version: 6.00 Build 0)  -->
<!DOCTYPE svg PUBLIC "-//W3C//DTD SVG 1.1//EN" "http://www.w3.org/Graphics/SVG/1.1/DTD/svg11.dtd">
<svg version="1.1" id="Calque_1" xmlns="http://www.w3.org/2000/svg" xmlns:xlink="http://www.w3.org/1999/xlink" x="0px" y="0px"
	 width="365.903px" height="431.998px" viewBox="0 0 365.903 431.998" enable-background="new 0 0 365.903 431.998"
	 xml:space="preserve">
<g>
	<path d="M273.11,420.211c1.258-1.286,2.494-2.816,3.902-4.81c1.104-1.574,2.01-3.249,2.832-4.812
		c3.023-5.897,4.561-12.033,4.561-18.239v-22.436c0-3.12-0.395-6.309-1.195-10.027c-0.34-1.507-0.705-3.226-1.262-4.824
		c-0.48-1.396-1.086-2.695-1.689-3.992l-0.471-1.008c-0.738-1.498-1.521-2.898-2.42-4.297l-0.336-0.514
		c-0.754-1.172-1.514-2.343-2.383-3.375c-6.287-7.507-14.609-11.641-23.467-11.641c-8.145,0-25.756-7.887-30.082-11.928
		l10.102-40.298l1.438-5.5l1.133-2.62c0.104-0.062,0.203-0.11,0.312-0.174c0.188-0.109,0.389-0.216,0.537-0.293
		c0.152-0.066,0.277-0.139,0.564-0.293c0.934-0.427,1.83-0.917,2.732-1.396l2.908-1.512c0.971-0.479,1.926-0.969,2.859-1.488
		c31.514-17.771,53.605-48.148,60.662-83.404l1.459-2.559l0.658-1.56c1.021-3.653,12.168-25.92,29.803-59.578l10.123-19.166
		c5.793-10.944,11.75-22.095,17.621-33.015l0.932-2.717c0.645-2.961,3.412-18.278-4.926-28.632
		c-4.404-5.482-10.953-8.491-18.475-8.491h-34.605c-1.068-4.748-3.145-9.183-6.047-12.874C294.647,4.651,284.696,0,273.614,0H92.272
		C81.185,0,71.251,4.637,64.978,12.71c-2.898,3.71-4.987,8.146-6.062,12.907H24.317c-7.518,0-14.083,3.009-18.466,8.491
		C-2.741,44.764,0.437,60.546,1.243,63.82l1.032,2.606c23.362,43.2,51.644,97.373,56.501,109.162c0.298,0.72,0.499,1.262,0.729,1.93
		l1.912,3.667c0.053,0.211,0.125,0.413,0.176,0.614c0.054,0.188,0.102,0.365,0.149,0.528l0.125,0.514
		c0.149,0.744,0.351,1.464,0.552,2.179c0.125,0.465,0.254,0.931,0.379,1.396c0.293,1.209,0.59,2.396,0.918,3.576
		c8.602,31.162,28.549,57.302,56.174,73.584c0.695,0.417,1.424,0.768,2.154,1.133c0.479,0.24,0.955,0.465,1.436,0.715
		c1.156,0.644,2.365,1.263,3.516,1.829c0.172,0.102,0.336,0.188,0.465,0.24l1.305,0.701c0.73,0.379,1.451,0.768,2.545,1.285
		l0.504,0.278c0.039,0.015,0.076,0.043,0.125,0.067c0.148,0.619,0.365,1.426,0.605,2.365l1.367,5.555
		c2.545,10.392,6.645,27.445,9.701,40.383c-4.393,4.166-21.803,12.102-30.062,12.102c-10.531,0-20.232,5.896-26.605,16.187
		c-3.25,5.241-5.361,11.478-6.145,18.038c-0.164,1.449-0.328,2.898-0.375,4.594c-0.029,0.178-0.053,0.365-0.082,0.859v22.436
		c0,7.757,2.246,15.304,6.48,21.815c0.725,1.095,1.559,2.103,2.418,3.104l0.479,0.566c1.219,1.479,2.299,2.65,3.428,3.696
		l0.652,0.552c1.791,1.574,3.24,2.703,4.709,3.667c1.479,0.956,3.441,2.165,5.592,3.087c4.863,2.112,9.977,3.168,15.24,3.168
		h126.082c3.023,0,6.119-0.451,9.801-1.406c4.004-1.075,7.703-2.697,11.006-4.829c2.221-1.435,4.266-3.062,6.354-5.05
		C272.754,420.552,272.956,420.389,273.11,420.211z M102.163,369.466c0.162-9.298,5.391-17.148,11.414-17.148
		c9.982,0,52.344-11.229,52.297-34.075l-11.842-47.007l-0.615-5.414l-0.34-1.157c-0.973-2.17-3.104-4.666-6.879-8.103l-0.416-0.365
		c-0.74-0.696-1.498-1.373-2.354-2.094c-0.875-0.729-1.854-1.521-2.822-2.317l-3.174-2.54c-1.426-1.133-2.859-2.256-4.674-3.682
		l-11.012-8.765c-14.496-11.896-31.963-28.065-38.279-47.712c-0.361-1.119-0.682-2.266-0.957-3.427l-0.107-0.441
		c-0.24-0.979-0.494-1.963-0.668-2.995l-0.055-0.456c-0.146-0.898-0.225-1.814-0.311-2.731l-0.068-0.667
		c-0.037-0.471-0.1-0.922-0.162-1.387c-0.086-0.605-0.164-1.224-0.188-2.002l-0.027-141.75c0.025-2.165,0.49-5.77,1.422-6.979
		c2.104-2.702,5.629-4.205,9.926-4.205h181.333c4.287,0,7.812,1.498,9.924,4.219c0.932,1.195,1.387,4.8,1.408,6.95l-0.021,141.912
		c-0.645,30.395-30.303,53.605-51.955,70.561l-5.684,4.459c-2.418,1.938-4.561,3.725-6.498,5.442
		c-1.334,1.171-2.545,2.294-3.605,3.351c-2.311,2.367-3.682,4.129-4.488,5.98l-1.924,6.096l-11.924,47.611
		c0,22.459,42.355,33.688,52.344,33.688c1.047,0,2.143,0.298,3.375,0.927c1.312,0.673,2.543,1.698,3.645,3.053
		c1.018,1.271,1.748,2.431,2.381,3.788l0.135,0.4c0.514,1.212,0.955,2.611,1.301,4.147c0.297,1.406,0.48,2.856,0.537,4.302
		l0.043,0.565c0.025,0.14,0.039,0.283,0.039,0.418v22.435c0,6.812-3.955,13.092-10.094,15.972c-2.299,1.085-4.709,1.637-7.152,1.637
		h-126.05c-0.336,0-0.682-0.053-1.008-0.101l-0.666-0.076c-1.172-0.125-2.217-0.341-3.514-0.73c-1.086-0.364-2.041-0.797-2.973-1.31
		c-1.008-0.553-1.963-1.221-2.836-1.964c-3.951-3.398-6.221-8.3-6.221-13.428L102.163,369.466z M306.862,113.602l0.076-59.928
		h30.959c0,0.513-0.027,1.046-0.074,1.545c-2.9,5.342-12.061,22.334-22.271,41.741L306.862,113.602z M59.024,113.587
		c-12.355-23.794-25.469-48.188-30.96-58.368c-0.054-0.523-0.091-1.056-0.101-1.545h30.969L59.024,113.587z"/>
	<path d="M236.604,53.674c0,0-4.078,137.659-25.713,139.281c0,0.028,0,0.053,0,0.077c8.311,0,21.586,0,21.586,0
		c21.979,0,26.107-139.354,26.107-139.354h-21.98V53.674z"/>
</g>
</svg>
